<?xml version="1.0" standalone="no"?>
<!DOCTYPE svg PUBLIC "-//W3C//DTD SVG 20010904//EN"
 "http://www.w3.org/TR/2001/REC-SVG-20010904/DTD/svg10.dtd">
<svg version="1.0" xmlns="http://www.w3.org/2000/svg"
 width="761.000000pt" height="614.000000pt" viewBox="0 0 761.000000 614.000000"
 preserveAspectRatio="xMidYMid meet">

<g transform="translate(0.000000,614.000000) scale(0.100000,-0.100000)"
fill="#000000" stroke="none">
<path d="M2641 4973 c-58 -61 -133 -186 -129 -216 5 -35 39 -27 71 18 61 84
137 210 137 227 0 32 -32 19 -79 -29z"/>
<path d="M3696 4803 c-4 -27 0 -101 9 -166 37 -281 74 -372 129 -317 28 28 27
120 -1 181 -30 63 -60 155 -73 222 -14 68 -36 127 -49 127 -5 0 -12 -21 -15
-47z"/>
<path d="M3285 4568 c-68 -39 -55 -129 21 -144 24 -4 37 0 59 18 38 34 39 82
1 115 -30 25 -51 28 -81 11z"/>
<path d="M4810 3800 c0 -11 169 -142 225 -175 41 -24 53 -16 30 19 -42 63
-255 194 -255 156z"/>
<path d="M3908 3353 c-43 -49 -47 -191 -10 -325 16 -57 28 -76 78 -128 84 -85
88 -83 81 48 -11 192 -61 374 -113 409 -18 11 -23 11 -36 -4z"/>
<path d="M4389 3181 c-36 -37 -38 -73 -3 -108 20 -20 32 -24 57 -19 46 9 80
51 73 90 -13 67 -78 86 -127 37z"/>
<path d="M5510 3001 c0 -6 5 -13 10 -16 6 -3 10 1 10 9 0 9 -4 16 -10 16 -5 0
-10 -4 -10 -9z"/>
<path d="M5111 2585 c-1 -33 23 -240 39 -350 6 -38 24 -153 40 -255 16 -102
32 -209 36 -238 17 -132 23 -5 10 203 -5 80 -28 270 -45 375 -9 57 -54 231
-70 272 -9 22 -10 21 -10 -7z"/>
<path d="M3125 1791 c-41 -25 -90 -79 -81 -88 12 -13 80 32 100 66 23 40 18
45 -19 22z"/>
<path d="M2687 1703 c24 -37 93 -57 171 -50 89 8 142 24 142 43 0 11 -5 12
-17 5 -37 -19 -131 -34 -169 -26 l-39 7 58 18 c32 10 60 20 62 22 2 2 -47 3
-109 3 l-113 0 14 -22z"/>
<path d="M5854 681 c-17 -9 -35 -25 -40 -36 -14 -31 -91 -65 -146 -65 -26 0
-48 -4 -48 -10 0 -15 69 -12 127 5 67 20 114 53 130 93 7 17 12 31 11 31 -2
-1 -17 -9 -34 -18z"/>
<path d="M5380 641 c0 -10 51 -57 75 -68 11 -6 41 -14 68 -17 39 -6 47 -5 47
8 0 10 -9 16 -26 16 -25 0 -64 16 -74 31 -7 11 -90 38 -90 30z"/>
</g>
</svg>
